<svg width="276" height="80" viewBox="0 0 276 80" fill="none" xmlns="http://www.w3.org/2000/svg">
<path d="M42.8 60H2.8V55.2H7.76V8.8H2.8V4H19.44V8.8H12.8V55.2H37.92V47.68H42.8V60ZM65.065 60H48.425V55.2H54.265V34.8H48.425V30H59.305V55.2H65.065V60ZM60.265 18.88C60.265 19.84 59.9183 20.6667 59.225 21.36C58.5317 22 57.7583 22.32 56.905 22.32C56.0517 22.32 55.2517 22 54.505 21.36C53.8117 20.6667 53.465 19.84 53.465 18.88C53.465 17.8667 53.8117 17.04 54.505 16.4C55.2517 15.7067 56.0517 15.36 56.905 15.36C57.7583 15.36 58.5317 15.7067 59.225 16.4C59.9183 17.04 60.265 17.8667 60.265 18.88ZM89.4906 57.28C88.744 58.24 87.704 59.04 86.3706 59.68C85.0906 60.32 83.464 60.64 81.4906 60.64C79.6773 60.64 77.8906 60.4267 76.1306 60C74.424 59.52 72.984 58.6933 71.8106 57.52V51.04H76.3706V54.64C77.1706 55.12 77.9706 55.4133 78.7706 55.52C79.624 55.6267 80.584 55.68 81.6506 55.68C82.2373 55.68 82.824 55.6 83.4106 55.44C83.9973 55.28 84.5573 55.0133 85.0906 54.64C85.464 54.32 85.784 53.92 86.0506 53.44C86.3173 52.9067 86.4506 52.2667 86.4506 51.52C86.4506 50.3467 86.1306 49.4667 85.4906 48.88C84.904 48.24 84.104 47.7333 83.0906 47.36C82.0773 46.9333 80.9573 46.56 79.7306 46.24C78.5573 45.8667 77.4373 45.3867 76.3706 44.8C75.3573 44.2133 74.504 43.4133 73.8106 42.4C73.1173 41.3333 72.7706 39.8933 72.7706 38.08C72.7706 36.5333 73.064 35.2267 73.6506 34.16C74.2373 33.04 74.984 32.1333 75.8906 31.44C76.7973 30.7467 77.8106 30.24 78.9306 29.92C80.0506 29.5467 81.0906 29.36 82.0506 29.36C82.6373 29.36 83.2773 29.4133 83.9706 29.52C84.7173 29.6267 85.4906 29.8133 86.2906 30.08C87.0373 30.3467 87.7573 30.6667 88.4506 31.04C89.1973 31.4133 89.8373 31.8933 90.3706 32.48V38.96H85.8106V35.12C85.2773 34.8533 84.7173 34.6667 84.1306 34.56C83.544 34.4 82.904 34.32 82.2106 34.32C81.624 34.32 81.0373 34.4 80.4506 34.56C79.9173 34.72 79.4373 34.9333 79.0106 35.2C78.6373 35.5733 78.344 36 78.1306 36.48C77.9173 36.96 77.8373 37.52 77.8906 38.16C77.944 39.0667 78.3173 39.7867 79.0106 40.32C79.7573 40.8533 80.6373 41.3067 81.6506 41.68C82.664 42.1067 83.7573 42.56 84.9306 43.04C86.104 43.4667 87.1706 44 88.1306 44.64C89.144 45.3333 89.9706 46.2133 90.6106 47.28C91.2506 48.3467 91.5706 49.7333 91.5706 51.44C91.5706 52.24 91.4106 53.1733 91.0906 54.24C90.7706 55.3067 90.2373 56.32 89.4906 57.28ZM115.023 60H103.663V34.96H96.8625V30H103.663V10.48H108.703V30H117.263V34.96H108.703V55.2H115.023V60Z" fill="black"/>
<path d="M210.64 60H200.16V57.6C200.16 57.12 200.16 56.6933 200.16 56.32C200.16 55.9467 200.16 55.52 200.16 55.04C199.947 55.5733 199.52 56.16 198.88 56.8C198.293 57.44 197.52 58.0267 196.56 58.56C195.547 59.2 194.373 59.7067 193.04 60.08C191.76 60.4533 190.32 60.64 188.72 60.64C186.48 60.64 184.373 60.24 182.4 59.44C180.48 58.5867 178.827 57.44 177.44 56C176 54.6133 174.853 52.9867 174 51.12C173.2 49.2 172.8 47.1733 172.8 45.04C172.8 42.9067 173.2 40.88 174 38.96C174.853 37.04 176 35.3867 177.44 34C178.827 32.56 180.48 31.4133 182.4 30.56C184.373 29.7067 186.48 29.28 188.72 29.28C191.76 29.28 194.267 29.92 196.24 31.2C198.213 32.48 199.52 33.8667 200.16 35.36C200.16 34.5067 200.187 33.6267 200.24 32.72C200.347 31.8133 200.427 30.9067 200.48 30H204.64V55.2H210.64V60ZM188.72 34.24C187.12 34.24 185.627 34.5333 184.24 35.12C182.853 35.6533 181.707 36.4533 180.8 37.52C179.84 38.48 179.12 39.6 178.64 40.88C178.16 42.1067 177.92 43.4667 177.92 44.96C177.92 46.6133 178.24 48.16 178.88 49.6C179.52 50.9867 180.427 52.16 181.6 53.12C182.507 53.92 183.547 54.56 184.72 55.04C185.947 55.52 187.28 55.76 188.72 55.76C190.213 55.76 191.6 55.4933 192.88 54.96C194.213 54.4267 195.36 53.7067 196.32 52.8C197.333 51.84 198.133 50.6933 198.72 49.36C199.307 47.9733 199.6 46.5067 199.6 44.96C199.6 43.4133 199.307 41.9733 198.72 40.64C198.133 39.2533 197.333 38.1067 196.32 37.2C195.36 36.24 194.213 35.52 192.88 35.04C191.6 34.5067 190.213 34.24 188.72 34.24ZM235.038 57.28C234.291 58.24 233.251 59.04 231.918 59.68C230.638 60.32 229.011 60.64 227.038 60.64C225.224 60.64 223.438 60.4267 221.678 60C219.971 59.52 218.531 58.6933 217.358 57.52V51.04H221.918V54.64C222.718 55.12 223.518 55.4133 224.318 55.52C225.171 55.6267 226.131 55.68 227.198 55.68C227.784 55.68 228.371 55.6 228.958 55.44C229.544 55.28 230.104 55.0133 230.638 54.64C231.011 54.32 231.331 53.92 231.598 53.44C231.864 52.9067 231.998 52.2667 231.998 51.52C231.998 50.3467 231.678 49.4667 231.038 48.88C230.451 48.24 229.651 47.7333 228.638 47.36C227.624 46.9333 226.504 46.56 225.278 46.24C224.104 45.8667 222.984 45.3867 221.918 44.8C220.904 44.2133 220.051 43.4133 219.358 42.4C218.664 41.3333 218.318 39.8933 218.318 38.08C218.318 36.5333 218.611 35.2267 219.198 34.16C219.784 33.04 220.531 32.1333 221.438 31.44C222.344 30.7467 223.358 30.24 224.478 29.92C225.598 29.5467 226.638 29.36 227.598 29.36C228.184 29.36 228.824 29.4133 229.518 29.52C230.264 29.6267 231.038 29.8133 231.838 30.08C232.584 30.3467 233.304 30.6667 233.997 31.04C234.744 31.4133 235.384 31.8933 235.918 32.48V38.96H231.358V35.12C230.824 34.8533 230.264 34.6667 229.678 34.56C229.091 34.4 228.451 34.32 227.758 34.32C227.171 34.32 226.584 34.4 225.998 34.56C225.464 34.72 224.984 34.9333 224.558 35.2C224.184 35.5733 223.891 36 223.678 36.48C223.464 36.96 223.384 37.52 223.438 38.16C223.491 39.0667 223.864 39.7867 224.558 40.32C225.304 40.8533 226.184 41.3067 227.198 41.68C228.211 42.1067 229.304 42.56 230.478 43.04C231.651 43.4667 232.718 44 233.678 44.64C234.691 45.3333 235.518 46.2133 236.158 47.28C236.798 48.3467 237.118 49.7333 237.118 51.44C237.118 52.24 236.958 53.1733 236.638 54.24C236.318 55.3067 235.784 56.32 235.038 57.28ZM258.249 34.24C256.489 34.24 254.889 34.5867 253.449 35.28C252.063 35.92 250.863 36.8267 249.849 38C249.049 39.0133 248.436 40.1867 248.009 41.52C247.583 42.8533 247.449 44.2667 247.609 45.76C250.649 44.5867 253.663 43.4133 256.649 42.24C259.689 41.0667 262.729 39.92 265.769 38.8C264.916 37.4133 263.849 36.32 262.569 35.52C261.289 34.6667 259.849 34.24 258.249 34.24ZM268.569 56.4C267.236 57.7333 265.689 58.7733 263.929 59.52C262.223 60.2667 260.329 60.64 258.249 60.64C256.063 60.64 253.983 60.24 252.009 59.44C250.089 58.5867 248.436 57.4667 247.049 56.08C245.609 54.64 244.463 52.9867 243.609 51.12C242.809 49.2 242.409 47.1467 242.409 44.96C242.409 42.8267 242.809 40.8 243.609 38.88C244.463 36.96 245.609 35.28 247.049 33.84C248.436 32.4533 250.089 31.36 252.009 30.56C253.983 29.7067 256.063 29.28 258.249 29.28C259.903 29.28 261.476 29.6 262.969 30.24C264.463 30.88 265.823 31.7333 267.049 32.8C268.223 33.92 269.236 35.2267 270.089 36.72C270.996 38.2133 271.689 39.84 272.169 41.6C268.276 43.0933 264.409 44.5867 260.569 46.08C256.729 47.52 252.863 48.9867 248.969 50.48C249.876 52.08 251.129 53.36 252.729 54.32C254.329 55.28 256.169 55.76 258.249 55.76C259.689 55.76 261.023 55.52 262.249 55.04C263.476 54.5067 264.543 53.76 265.449 52.8L268.569 56.4Z" fill="black"/>
<rect x="126" y="55" width="41" height="5" fill="black"/>
<rect x="126" y="29" width="33" height="5" fill="black"/>
<rect x="126" y="4" width="41" height="5" fill="black"/>
</svg>
