<svg width="238" height="68" viewBox="0 0 238 68" fill="none" xmlns="http://www.w3.org/2000/svg">
<path d="M47.1 45H17.1V41.4H20.82V6.6H17.1V3H29.58V6.6H24.6V41.4H43.44V35.76H47.1V45ZM63.7987 45H51.3187V41.4H55.6987V26.1H51.3187V22.5H59.4787V41.4H63.7987V45ZM60.1987 14.16C60.1987 14.88 59.9387 15.5 59.4187 16.02C58.8988 16.5 58.3187 16.74 57.6787 16.74C57.0388 16.74 56.4388 16.5 55.8787 16.02C55.3588 15.5 55.0987 14.88 55.0987 14.16C55.0987 13.4 55.3588 12.78 55.8787 12.3C56.4388 11.78 57.0388 11.52 57.6787 11.52C58.3187 11.52 58.8988 11.78 59.4187 12.3C59.9387 12.78 60.1987 13.4 60.1987 14.16ZM82.1179 42.96C81.558 43.68 80.778 44.28 79.7779 44.76C78.8179 45.24 77.598 45.48 76.1179 45.48C74.758 45.48 73.4179 45.32 72.0979 45C70.818 44.64 69.738 44.02 68.8579 43.14V38.28H72.2779V40.98C72.8779 41.34 73.4779 41.56 74.0779 41.64C74.718 41.72 75.438 41.76 76.2379 41.76C76.678 41.76 77.118 41.7 77.5579 41.58C77.998 41.46 78.418 41.26 78.8179 40.98C79.098 40.74 79.338 40.44 79.5379 40.08C79.738 39.68 79.8379 39.2 79.8379 38.64C79.8379 37.76 79.5979 37.1 79.1179 36.66C78.678 36.18 78.078 35.8 77.3179 35.52C76.558 35.2 75.718 34.92 74.7979 34.68C73.918 34.4 73.078 34.04 72.2779 33.6C71.518 33.16 70.878 32.56 70.3579 31.8C69.838 31 69.5779 29.92 69.5779 28.56C69.5779 27.4 69.798 26.42 70.2379 25.62C70.678 24.78 71.238 24.1 71.9179 23.58C72.598 23.06 73.3579 22.68 74.1979 22.44C75.0379 22.16 75.8179 22.02 76.5379 22.02C76.978 22.02 77.458 22.06 77.9779 22.14C78.538 22.22 79.1179 22.36 79.7179 22.56C80.278 22.76 80.818 23 81.3379 23.28C81.898 23.56 82.378 23.92 82.7779 24.36V29.22H79.3579V26.34C78.958 26.14 78.538 26 78.0979 25.92C77.658 25.8 77.178 25.74 76.6579 25.74C76.218 25.74 75.778 25.8 75.3379 25.92C74.938 26.04 74.578 26.2 74.2579 26.4C73.978 26.68 73.758 27 73.5979 27.36C73.438 27.72 73.378 28.14 73.4179 28.62C73.458 29.3 73.738 29.84 74.2579 30.24C74.818 30.64 75.478 30.98 76.2379 31.26C76.998 31.58 77.818 31.92 78.6979 32.28C79.578 32.6 80.3779 33 81.0979 33.48C81.858 34 82.4779 34.66 82.9579 35.46C83.4379 36.26 83.6779 37.3 83.6779 38.58C83.6779 39.18 83.5579 39.88 83.3179 40.68C83.0779 41.48 82.678 42.24 82.1179 42.96ZM101.267 45H92.7472V26.22H87.6469V22.5H92.7472V7.86H96.5272V22.5H102.947V26.22H96.5272V41.4H101.267V45Z" fill="#248297"/>
<path d="M172.98 45H165.12V43.2C165.12 42.84 165.12 42.52 165.12 42.24C165.12 41.96 165.12 41.64 165.12 41.28C164.96 41.68 164.64 42.12 164.16 42.6C163.72 43.08 163.14 43.52 162.42 43.92C161.66 44.4 160.78 44.78 159.78 45.06C158.82 45.34 157.74 45.48 156.54 45.48C154.86 45.48 153.28 45.18 151.8 44.58C150.36 43.94 149.12 43.08 148.08 42C147 40.96 146.14 39.74 145.5 38.34C144.9 36.9 144.6 35.38 144.6 33.78C144.6 32.18 144.9 30.66 145.5 29.22C146.14 27.78 147 26.54 148.08 25.5C149.12 24.42 150.36 23.56 151.8 22.92C153.28 22.28 154.86 21.96 156.54 21.96C158.82 21.96 160.7 22.44 162.18 23.4C163.66 24.36 164.64 25.4 165.12 26.52C165.12 25.88 165.14 25.22 165.18 24.54C165.26 23.86 165.32 23.18 165.36 22.5H168.48V41.4H172.98V45ZM156.54 25.68C155.34 25.68 154.22 25.9 153.18 26.34C152.14 26.74 151.28 27.34 150.6 28.14C149.88 28.86 149.34 29.7 148.98 30.66C148.62 31.58 148.44 32.6 148.44 33.72C148.44 34.96 148.68 36.12 149.16 37.2C149.64 38.24 150.32 39.12 151.2 39.84C151.88 40.44 152.66 40.92 153.54 41.28C154.46 41.64 155.46 41.82 156.54 41.82C157.66 41.82 158.7 41.62 159.66 41.22C160.66 40.82 161.52 40.28 162.24 39.6C163 38.88 163.6 38.02 164.04 37.02C164.48 35.98 164.7 34.88 164.7 33.72C164.7 32.56 164.48 31.48 164.04 30.48C163.6 29.44 163 28.58 162.24 27.9C161.52 27.18 160.66 26.64 159.66 26.28C158.7 25.88 157.66 25.68 156.54 25.68ZM191.278 42.96C190.718 43.68 189.938 44.28 188.938 44.76C187.979 45.24 186.758 45.48 185.278 45.48C183.918 45.48 182.578 45.32 181.258 45C179.978 44.64 178.898 44.02 178.019 43.14V38.28H181.438V40.98C182.039 41.34 182.638 41.56 183.238 41.64C183.878 41.72 184.598 41.76 185.398 41.76C185.838 41.76 186.278 41.7 186.718 41.58C187.158 41.46 187.578 41.26 187.979 40.98C188.258 40.74 188.498 40.44 188.699 40.08C188.898 39.68 188.999 39.2 188.999 38.64C188.999 37.76 188.758 37.1 188.278 36.66C187.838 36.18 187.238 35.8 186.479 35.52C185.718 35.2 184.878 34.92 183.958 34.68C183.078 34.4 182.238 34.04 181.438 33.6C180.678 33.16 180.038 32.56 179.519 31.8C178.998 31 178.738 29.92 178.738 28.56C178.738 27.4 178.958 26.42 179.398 25.62C179.838 24.78 180.398 24.1 181.079 23.58C181.758 23.06 182.518 22.68 183.358 22.44C184.198 22.16 184.979 22.02 185.699 22.02C186.138 22.02 186.618 22.06 187.139 22.14C187.698 22.22 188.278 22.36 188.878 22.56C189.438 22.76 189.978 23 190.498 23.28C191.058 23.56 191.538 23.92 191.938 24.36V29.22H188.519V26.34C188.118 26.14 187.698 26 187.258 25.92C186.818 25.8 186.338 25.74 185.818 25.74C185.378 25.74 184.938 25.8 184.499 25.92C184.098 26.04 183.738 26.2 183.418 26.4C183.138 26.68 182.918 27 182.758 27.36C182.598 27.72 182.538 28.14 182.579 28.62C182.618 29.3 182.898 29.84 183.418 30.24C183.978 30.64 184.638 30.98 185.398 31.26C186.158 31.58 186.978 31.92 187.858 32.28C188.738 32.6 189.538 33 190.258 33.48C191.018 34 191.639 34.66 192.119 35.46C192.599 36.26 192.838 37.3 192.838 38.58C192.838 39.18 192.719 39.88 192.479 40.68C192.238 41.48 191.838 42.24 191.278 42.96ZM208.687 25.68C207.367 25.68 206.167 25.94 205.087 26.46C204.047 26.94 203.147 27.62 202.387 28.5C201.787 29.26 201.327 30.14 201.007 31.14C200.687 32.14 200.587 33.2 200.707 34.32C202.987 33.44 205.247 32.56 207.487 31.68C209.767 30.8 212.047 29.94 214.327 29.1C213.687 28.06 212.887 27.24 211.927 26.64C210.967 26 209.887 25.68 208.687 25.68ZM216.427 42.3C215.427 43.3 214.267 44.08 212.947 44.64C211.667 45.2 210.247 45.48 208.687 45.48C207.047 45.48 205.487 45.18 204.007 44.58C202.567 43.94 201.327 43.1 200.287 42.06C199.207 40.98 198.347 39.74 197.707 38.34C197.107 36.9 196.807 35.36 196.807 33.72C196.807 32.12 197.107 30.6 197.707 29.16C198.347 27.72 199.207 26.46 200.287 25.38C201.327 24.34 202.567 23.52 204.007 22.92C205.487 22.28 207.047 21.96 208.687 21.96C209.927 21.96 211.107 22.2 212.227 22.68C213.347 23.16 214.367 23.8 215.287 24.6C216.167 25.44 216.927 26.42 217.567 27.54C218.247 28.66 218.767 29.88 219.127 31.2C216.207 32.32 213.307 33.44 210.427 34.56C207.547 35.64 204.647 36.74 201.727 37.86C202.407 39.06 203.347 40.02 204.547 40.74C205.747 41.46 207.127 41.82 208.687 41.82C209.767 41.82 210.767 41.64 211.687 41.28C212.607 40.88 213.407 40.32 214.087 39.6L216.427 42.3Z" fill="#248297"/>
<path d="M140.25 41.25H109.5V45H140.25V41.25Z" fill="#248297"/>
<path d="M134.25 21.75H109.5V25.5H134.25V21.75Z" fill="#248297"/>
<path d="M140.25 3H109.5V6.75H140.25V3Z" fill="#248297"/>
<path d="M8.96 51.57C8.9 51.6833 8.81333 51.74 8.7 51.74C8.61333 51.74 8.5 51.68 8.36 51.56C8.22667 51.4333 8.04333 51.2967 7.81 51.15C7.57667 50.9967 7.28333 50.8567 6.93 50.73C6.58333 50.6033 6.15333 50.54 5.64 50.54C5.12667 50.54 4.67333 50.6133 4.28 50.76C3.89333 50.9067 3.56667 51.1067 3.3 51.36C3.04 51.6133 2.84 51.9067 2.7 52.24C2.56667 52.5733 2.5 52.9233 2.5 53.29C2.5 53.77 2.6 54.1667 2.8 54.48C3.00667 54.7933 3.27667 55.06 3.61 55.28C3.94333 55.5 4.32 55.6867 4.74 55.84C5.16667 55.9867 5.60333 56.1333 6.05 56.28C6.49667 56.4267 6.93 56.59 7.35 56.77C7.77667 56.9433 8.15667 57.1633 8.49 57.43C8.82333 57.6967 9.09 58.0267 9.29 58.42C9.49667 58.8067 9.6 59.29 9.6 59.87C9.6 60.4633 9.49667 61.0233 9.29 61.55C9.09 62.07 8.79667 62.5233 8.41 62.91C8.02333 63.2967 7.55 63.6033 6.99 63.83C6.43 64.05 5.79 64.16 5.07 64.16C4.13667 64.16 3.33333 63.9967 2.66 63.67C1.98667 63.3367 1.39667 62.8833 0.89 62.31L1.17 61.87C1.25 61.77 1.34333 61.72 1.45 61.72C1.51 61.72 1.58667 61.76 1.68 61.84C1.77333 61.92 1.88667 62.02 2.02 62.14C2.15333 62.2533 2.31333 62.38 2.5 62.52C2.68667 62.6533 2.90333 62.78 3.15 62.9C3.39667 63.0133 3.68 63.11 4 63.19C4.32 63.27 4.68333 63.31 5.09 63.31C5.65 63.31 6.15 63.2267 6.59 63.06C7.03 62.8867 7.4 62.6533 7.7 62.36C8.00667 62.0667 8.24 61.72 8.4 61.32C8.56 60.9133 8.64 60.48 8.64 60.02C8.64 59.52 8.53667 59.11 8.33 58.79C8.13 58.4633 7.86333 58.1933 7.53 57.98C7.19667 57.76 6.81667 57.5767 6.39 57.43C5.97 57.2833 5.53667 57.14 5.09 57C4.64333 56.86 4.20667 56.7033 3.78 56.53C3.36 56.3567 2.98333 56.1367 2.65 55.87C2.31667 55.5967 2.04667 55.26 1.84 54.86C1.64 54.4533 1.54 53.9467 1.54 53.34C1.54 52.8667 1.63 52.41 1.81 51.97C1.99 51.53 2.25333 51.1433 2.6 50.81C2.94667 50.47 3.37333 50.2 3.88 50C4.39333 49.7933 4.97667 49.69 5.63 49.69C6.36333 49.69 7.02 49.8067 7.6 50.04C8.18667 50.2733 8.72 50.63 9.2 51.11L8.96 51.57ZM13.2469 54.05V64H12.2969V54.05H13.2469ZM13.6569 50.62C13.6569 50.74 13.6302 50.8533 13.5769 50.96C13.5302 51.06 13.4669 51.15 13.3869 51.23C13.3069 51.31 13.2135 51.3733 13.1069 51.42C13.0002 51.4667 12.8869 51.49 12.7669 51.49C12.6469 51.49 12.5335 51.4667 12.4269 51.42C12.3202 51.3733 12.2269 51.31 12.1469 51.23C12.0669 51.15 12.0035 51.06 11.9569 50.96C11.9102 50.8533 11.8869 50.74 11.8869 50.62C11.8869 50.5 11.9102 50.3867 11.9569 50.28C12.0035 50.1667 12.0669 50.07 12.1469 49.99C12.2269 49.91 12.3202 49.8467 12.4269 49.8C12.5335 49.7533 12.6469 49.73 12.7669 49.73C12.8869 49.73 13.0002 49.7533 13.1069 49.8C13.2135 49.8467 13.3069 49.91 13.3869 49.99C13.4669 50.07 13.5302 50.1667 13.5769 50.28C13.6302 50.3867 13.6569 50.5 13.6569 50.62ZM22.11 55.28C22.0567 55.3733 21.98 55.42 21.88 55.42C21.8067 55.42 21.7133 55.38 21.6 55.3C21.4867 55.2133 21.3333 55.12 21.14 55.02C20.9533 54.9133 20.72 54.82 20.44 54.74C20.16 54.6533 19.82 54.61 19.42 54.61C19.06 54.61 18.73 54.6633 18.43 54.77C18.1367 54.87 17.8833 55.0067 17.67 55.18C17.4633 55.3533 17.3033 55.5567 17.19 55.79C17.0767 56.0167 17.02 56.2567 17.02 56.51C17.02 56.8233 17.1 57.0833 17.26 57.29C17.42 57.4967 17.6267 57.6733 17.88 57.82C18.14 57.9667 18.4367 58.0933 18.77 58.2C19.1033 58.3067 19.44 58.4133 19.78 58.52C20.1267 58.6267 20.4667 58.7467 20.8 58.88C21.1333 59.0067 21.4267 59.1667 21.68 59.36C21.94 59.5533 22.15 59.79 22.31 60.07C22.47 60.35 22.55 60.69 22.55 61.09C22.55 61.5233 22.4733 61.9267 22.32 62.3C22.1667 62.6733 21.94 62.9967 21.64 63.27C21.3467 63.5433 20.9833 63.76 20.55 63.92C20.1167 64.08 19.62 64.16 19.06 64.16C18.36 64.16 17.7567 64.05 17.25 63.83C16.7433 63.6033 16.29 63.31 15.89 62.95L16.11 62.61C16.1433 62.5567 16.18 62.5167 16.22 62.49C16.2667 62.4633 16.3267 62.45 16.4 62.45C16.4867 62.45 16.59 62.5033 16.71 62.61C16.8367 62.7167 17.0033 62.8333 17.21 62.96C17.4167 63.08 17.67 63.1933 17.97 63.3C18.2767 63.4067 18.6533 63.46 19.1 63.46C19.52 63.46 19.89 63.4033 20.21 63.29C20.53 63.17 20.7967 63.01 21.01 62.81C21.2233 62.61 21.3833 62.3767 21.49 62.11C21.6033 61.8367 21.66 61.55 21.66 61.25C21.66 60.9167 21.58 60.64 21.42 60.42C21.26 60.2 21.05 60.0133 20.79 59.86C20.53 59.7067 20.2333 59.5767 19.9 59.47C19.5733 59.3633 19.2367 59.2567 18.89 59.15C18.5433 59.0433 18.2033 58.9267 17.87 58.8C17.5433 58.6733 17.25 58.5133 16.99 58.32C16.73 58.1267 16.52 57.8933 16.36 57.62C16.2 57.34 16.12 56.9933 16.12 56.58C16.12 56.2267 16.1967 55.8867 16.35 55.56C16.5033 55.2333 16.72 54.9467 17 54.7C17.2867 54.4533 17.6333 54.2567 18.04 54.11C18.4467 53.9633 18.9033 53.89 19.41 53.89C20.0167 53.89 20.5533 53.9767 21.02 54.15C21.4933 54.3233 21.9233 54.59 22.31 54.95L22.11 55.28ZM27.8561 64.16C27.1828 64.16 26.6561 63.9733 26.2761 63.6C25.9028 63.2267 25.7161 62.65 25.7161 61.87V55.07H24.2861C24.2128 55.07 24.1528 55.05 24.1061 55.01C24.0594 54.97 24.0361 54.9133 24.0361 54.84V54.47L25.7361 54.35L25.9761 50.79C25.9894 50.73 26.0161 50.6767 26.0561 50.63C26.0961 50.5833 26.1528 50.56 26.2261 50.56H26.6761V54.36H29.8161V55.07H26.6761V61.82C26.6761 62.0933 26.7094 62.33 26.7761 62.53C26.8494 62.7233 26.9461 62.8833 27.0661 63.01C27.1928 63.1367 27.3394 63.23 27.5061 63.29C27.6728 63.35 27.8528 63.38 28.0461 63.38C28.2861 63.38 28.4928 63.3467 28.6661 63.28C28.8394 63.2067 28.9894 63.13 29.1161 63.05C29.2428 62.9633 29.3461 62.8867 29.4261 62.82C29.5061 62.7467 29.5694 62.71 29.6161 62.71C29.6694 62.71 29.7228 62.7433 29.7761 62.81L30.0361 63.23C29.7828 63.51 29.4594 63.7367 29.0661 63.91C28.6794 64.0767 28.2761 64.16 27.8561 64.16ZM38.9325 58.02C38.9325 57.4867 38.8558 57.01 38.7025 56.59C38.5558 56.1633 38.3458 55.8033 38.0725 55.51C37.7992 55.2167 37.4725 54.9933 37.0925 54.84C36.7192 54.68 36.3058 54.6 35.8525 54.6C35.3392 54.6 34.8792 54.68 34.4725 54.84C34.0658 55 33.7125 55.23 33.4125 55.53C33.1192 55.83 32.8825 56.19 32.7025 56.61C32.5225 57.03 32.4025 57.5 32.3425 58.02H38.9325ZM32.2925 58.63V58.82C32.2925 59.5667 32.3792 60.2233 32.5525 60.79C32.7258 61.3567 32.9725 61.8333 33.2925 62.22C33.6125 62.6 33.9992 62.8867 34.4525 63.08C34.9058 63.2733 35.4125 63.37 35.9725 63.37C36.4725 63.37 36.9058 63.3167 37.2725 63.21C37.6392 63.0967 37.9458 62.9733 38.1925 62.84C38.4458 62.7 38.6458 62.5767 38.7925 62.47C38.9392 62.3567 39.0458 62.3 39.1125 62.3C39.1992 62.3 39.2658 62.3333 39.3125 62.4L39.5725 62.72C39.4125 62.92 39.1992 63.1067 38.9325 63.28C38.6725 63.4533 38.3792 63.6033 38.0525 63.73C37.7325 63.85 37.3858 63.9467 37.0125 64.02C36.6458 64.0933 36.2758 64.13 35.9025 64.13C35.2225 64.13 34.6025 64.0133 34.0425 63.78C33.4825 63.54 33.0025 63.1933 32.6025 62.74C32.2025 62.2867 31.8925 61.7333 31.6725 61.08C31.4592 60.42 31.3525 59.6667 31.3525 58.82C31.3525 58.1067 31.4525 57.45 31.6525 56.85C31.8592 56.2433 32.1525 55.7233 32.5325 55.29C32.9192 54.85 33.3892 54.5067 33.9425 54.26C34.5025 54.0133 35.1358 53.89 35.8425 53.89C36.4025 53.89 36.9225 53.9867 37.4025 54.18C37.8825 54.3733 38.2992 54.6567 38.6525 55.03C39.0058 55.3967 39.2825 55.85 39.4825 56.39C39.6892 56.93 39.7925 57.55 39.7925 58.25C39.7925 58.3967 39.7725 58.4967 39.7325 58.55C39.6925 58.6033 39.6258 58.63 39.5325 58.63H32.2925ZM42.3822 64V54.05H42.9122C43.0789 54.05 43.1755 54.1333 43.2022 54.3L43.2922 55.74C43.6789 55.1867 44.1222 54.74 44.6222 54.4C45.1222 54.06 45.6855 53.89 46.3122 53.89C47.0389 53.89 47.6189 54.1 48.0522 54.52C48.4922 54.94 48.7889 55.5233 48.9422 56.27C49.0622 55.8633 49.2289 55.51 49.4422 55.21C49.6622 54.91 49.9122 54.6633 50.1922 54.47C50.4722 54.27 50.7755 54.1233 51.1022 54.03C51.4355 53.9367 51.7755 53.89 52.1222 53.89C52.6155 53.89 53.0589 53.9733 53.4522 54.14C53.8455 54.3 54.1789 54.54 54.4522 54.86C54.7255 55.18 54.9355 55.5733 55.0822 56.04C55.2289 56.5067 55.3022 57.04 55.3022 57.64V64H54.3522V57.64C54.3522 56.6667 54.1422 55.9267 53.7222 55.42C53.3022 54.9067 52.7022 54.65 51.9222 54.65C51.5755 54.65 51.2422 54.7133 50.9222 54.84C50.6089 54.9667 50.3289 55.1567 50.0822 55.41C49.8422 55.6567 49.6489 55.9667 49.5022 56.34C49.3622 56.7133 49.2922 57.1467 49.2922 57.64V64H48.3322V57.64C48.3322 56.6733 48.1389 55.9333 47.7522 55.42C47.3722 54.9067 46.8122 54.65 46.0722 54.65C45.5322 54.65 45.0322 54.81 44.5722 55.13C44.1122 55.45 43.7022 55.8933 43.3422 56.46V64H42.3822ZM64.0459 59.19C63.0993 59.2233 62.2826 59.3 61.5959 59.42C60.9159 59.5333 60.3526 59.69 59.9059 59.89C59.4659 60.09 59.1393 60.33 58.9259 60.61C58.7126 60.8833 58.6059 61.1967 58.6059 61.55C58.6059 61.8833 58.6593 62.1733 58.7659 62.42C58.8793 62.66 59.0259 62.86 59.2059 63.02C59.3926 63.1733 59.6059 63.2867 59.8459 63.36C60.0859 63.4333 60.3359 63.47 60.5959 63.47C60.9826 63.47 61.3359 63.43 61.6559 63.35C61.9826 63.2633 62.2826 63.1467 62.5559 63C62.8359 62.8467 63.0959 62.6667 63.3359 62.46C63.5759 62.2533 63.8126 62.03 64.0459 61.79V59.19ZM58.1959 55.46C58.7159 54.94 59.2626 54.5467 59.8359 54.28C60.4093 54.0133 61.0593 53.88 61.7859 53.88C62.3193 53.88 62.7859 53.9667 63.1859 54.14C63.5859 54.3067 63.9159 54.55 64.1759 54.87C64.4426 55.1833 64.6426 55.5667 64.7759 56.02C64.9093 56.4667 64.9759 56.9667 64.9759 57.52V64H64.5959C64.3959 64 64.2726 63.9067 64.2259 63.72L64.0859 62.44C63.8126 62.7067 63.5393 62.9467 63.2659 63.16C62.9993 63.3733 62.7193 63.5533 62.4259 63.7C62.1326 63.8467 61.8159 63.96 61.4759 64.04C61.1359 64.12 60.7626 64.16 60.3559 64.16C60.0159 64.16 59.6859 64.11 59.3659 64.01C59.0459 63.91 58.7593 63.7567 58.5059 63.55C58.2593 63.3433 58.0593 63.08 57.9059 62.76C57.7593 62.4333 57.6859 62.0433 57.6859 61.59C57.6859 61.17 57.8059 60.78 58.0459 60.42C58.2859 60.06 58.6626 59.7467 59.1759 59.48C59.6893 59.2133 60.3459 59 61.1459 58.84C61.9526 58.68 62.9193 58.5867 64.0459 58.56V57.52C64.0459 56.6 63.8459 55.8933 63.4459 55.4C63.0526 54.9 62.4659 54.65 61.6859 54.65C61.2059 54.65 60.7959 54.7167 60.4559 54.85C60.1226 54.9833 59.8393 55.13 59.6059 55.29C59.3726 55.45 59.1826 55.5967 59.0359 55.73C58.8893 55.8633 58.7659 55.93 58.6659 55.93C58.5926 55.93 58.5326 55.9133 58.4859 55.88C58.4393 55.8467 58.3993 55.8033 58.3659 55.75L58.1959 55.46ZM80.3831 56.19C80.0031 55.6167 79.5798 55.2133 79.1131 54.98C78.6531 54.7467 78.1265 54.63 77.5331 54.63C76.9465 54.63 76.4331 54.7367 75.9931 54.95C75.5531 55.1633 75.1831 55.4667 74.8831 55.86C74.5898 56.2467 74.3665 56.7133 74.2131 57.26C74.0665 57.8 73.9931 58.3967 73.9931 59.05C73.9931 60.53 74.2631 61.62 74.8031 62.32C75.3498 63.0133 76.1365 63.36 77.1631 63.36C77.8165 63.36 78.4131 63.19 78.9531 62.85C79.4931 62.51 79.9698 62.0333 80.3831 61.42V56.19ZM81.3331 49.45V64H80.8131C80.6398 64 80.5398 63.9133 80.5131 63.74L80.4131 62.17C79.9731 62.77 79.4598 63.2467 78.8731 63.6C78.2865 63.9533 77.6265 64.13 76.8931 64.13C75.6665 64.13 74.7131 63.7067 74.0331 62.86C73.3531 62.0133 73.0131 60.7433 73.0131 59.05C73.0131 58.3233 73.1065 57.6467 73.2931 57.02C73.4865 56.3867 73.7665 55.84 74.1331 55.38C74.4998 54.9133 74.9498 54.5467 75.4831 54.28C76.0231 54.0133 76.6431 53.88 77.3431 53.88C78.0165 53.88 78.5998 54.0033 79.0931 54.25C79.5865 54.4967 80.0165 54.8633 80.3831 55.35V49.45H81.3331ZM91.5888 58.02C91.5888 57.4867 91.5121 57.01 91.3588 56.59C91.2121 56.1633 91.0021 55.8033 90.7288 55.51C90.4554 55.2167 90.1288 54.9933 89.7488 54.84C89.3754 54.68 88.9621 54.6 88.5088 54.6C87.9954 54.6 87.5354 54.68 87.1288 54.84C86.7221 55 86.3688 55.23 86.0688 55.53C85.7754 55.83 85.5388 56.19 85.3588 56.61C85.1788 57.03 85.0588 57.5 84.9988 58.02H91.5888ZM84.9488 58.63V58.82C84.9488 59.5667 85.0354 60.2233 85.2088 60.79C85.3821 61.3567 85.6288 61.8333 85.9488 62.22C86.2688 62.6 86.6554 62.8867 87.1088 63.08C87.5621 63.2733 88.0688 63.37 88.6288 63.37C89.1288 63.37 89.5621 63.3167 89.9288 63.21C90.2954 63.0967 90.6021 62.9733 90.8488 62.84C91.1021 62.7 91.3021 62.5767 91.4488 62.47C91.5954 62.3567 91.7021 62.3 91.7688 62.3C91.8554 62.3 91.9221 62.3333 91.9688 62.4L92.2288 62.72C92.0688 62.92 91.8554 63.1067 91.5888 63.28C91.3288 63.4533 91.0354 63.6033 90.7088 63.73C90.3888 63.85 90.0421 63.9467 89.6688 64.02C89.3021 64.0933 88.9321 64.13 88.5588 64.13C87.8788 64.13 87.2588 64.0133 86.6988 63.78C86.1388 63.54 85.6588 63.1933 85.2588 62.74C84.8588 62.2867 84.5488 61.7333 84.3288 61.08C84.1154 60.42 84.0088 59.6667 84.0088 58.82C84.0088 58.1067 84.1088 57.45 84.3088 56.85C84.5154 56.2433 84.8088 55.7233 85.1888 55.29C85.5754 54.85 86.0454 54.5067 86.5988 54.26C87.1588 54.0133 87.7921 53.89 88.4988 53.89C89.0588 53.89 89.5788 53.9867 90.0588 54.18C90.5388 54.3733 90.9554 54.6567 91.3088 55.03C91.6621 55.3967 91.9388 55.85 92.1388 56.39C92.3454 56.93 92.4488 57.55 92.4488 58.25C92.4488 58.3967 92.4288 58.4967 92.3888 58.55C92.3488 58.6033 92.2821 58.63 92.1888 58.63H84.9488ZM101.518 49.45V64H100.558V49.45H101.518ZM105.942 54.05V64H104.992V54.05H105.942ZM106.352 50.62C106.352 50.74 106.326 50.8533 106.272 50.96C106.226 51.06 106.162 51.15 106.082 51.23C106.002 51.31 105.909 51.3733 105.802 51.42C105.696 51.4667 105.582 51.49 105.462 51.49C105.342 51.49 105.229 51.4667 105.122 51.42C105.016 51.3733 104.922 51.31 104.842 51.23C104.762 51.15 104.699 51.06 104.652 50.96C104.606 50.8533 104.582 50.74 104.582 50.62C104.582 50.5 104.606 50.3867 104.652 50.28C104.699 50.1667 104.762 50.07 104.842 49.99C104.922 49.91 105.016 49.8467 105.122 49.8C105.229 49.7533 105.342 49.73 105.462 49.73C105.582 49.73 105.696 49.7533 105.802 49.8C105.909 49.8467 106.002 49.91 106.082 49.99C106.162 50.07 106.226 50.1667 106.272 50.28C106.326 50.3867 106.352 50.5 106.352 50.62ZM114.805 55.28C114.752 55.3733 114.675 55.42 114.575 55.42C114.502 55.42 114.409 55.38 114.295 55.3C114.182 55.2133 114.029 55.12 113.835 55.02C113.649 54.9133 113.415 54.82 113.135 54.74C112.855 54.6533 112.515 54.61 112.115 54.61C111.755 54.61 111.425 54.6633 111.125 54.77C110.832 54.87 110.579 55.0067 110.365 55.18C110.159 55.3533 109.999 55.5567 109.885 55.79C109.772 56.0167 109.715 56.2567 109.715 56.51C109.715 56.8233 109.795 57.0833 109.955 57.29C110.115 57.4967 110.322 57.6733 110.575 57.82C110.835 57.9667 111.132 58.0933 111.465 58.2C111.799 58.3067 112.135 58.4133 112.475 58.52C112.822 58.6267 113.162 58.7467 113.495 58.88C113.829 59.0067 114.122 59.1667 114.375 59.36C114.635 59.5533 114.845 59.79 115.005 60.07C115.165 60.35 115.245 60.69 115.245 61.09C115.245 61.5233 115.169 61.9267 115.015 62.3C114.862 62.6733 114.635 62.9967 114.335 63.27C114.042 63.5433 113.679 63.76 113.245 63.92C112.812 64.08 112.315 64.16 111.755 64.16C111.055 64.16 110.452 64.05 109.945 63.83C109.439 63.6033 108.985 63.31 108.585 62.95L108.805 62.61C108.839 62.5567 108.875 62.5167 108.915 62.49C108.962 62.4633 109.022 62.45 109.095 62.45C109.182 62.45 109.285 62.5033 109.405 62.61C109.532 62.7167 109.699 62.8333 109.905 62.96C110.112 63.08 110.365 63.1933 110.665 63.3C110.972 63.4067 111.349 63.46 111.795 63.46C112.215 63.46 112.585 63.4033 112.905 63.29C113.225 63.17 113.492 63.01 113.705 62.81C113.919 62.61 114.079 62.3767 114.185 62.11C114.299 61.8367 114.355 61.55 114.355 61.25C114.355 60.9167 114.275 60.64 114.115 60.42C113.955 60.2 113.745 60.0133 113.485 59.86C113.225 59.7067 112.929 59.5767 112.595 59.47C112.269 59.3633 111.932 59.2567 111.585 59.15C111.239 59.0433 110.899 58.9267 110.565 58.8C110.239 58.6733 109.945 58.5133 109.685 58.32C109.425 58.1267 109.215 57.8933 109.055 57.62C108.895 57.34 108.815 56.9933 108.815 56.58C108.815 56.2267 108.892 55.8867 109.045 55.56C109.199 55.2333 109.415 54.9467 109.695 54.7C109.982 54.4533 110.329 54.2567 110.735 54.11C111.142 53.9633 111.599 53.89 112.105 53.89C112.712 53.89 113.249 53.9767 113.715 54.15C114.189 54.3233 114.619 54.59 115.005 54.95L114.805 55.28ZM120.551 64.16C119.878 64.16 119.351 63.9733 118.971 63.6C118.598 63.2267 118.411 62.65 118.411 61.87V55.07H116.981C116.908 55.07 116.848 55.05 116.801 55.01C116.755 54.97 116.731 54.9133 116.731 54.84V54.47L118.431 54.35L118.671 50.79C118.685 50.73 118.711 50.6767 118.751 50.63C118.791 50.5833 118.848 50.56 118.921 50.56H119.371V54.36H122.511V55.07H119.371V61.82C119.371 62.0933 119.405 62.33 119.471 62.53C119.545 62.7233 119.641 62.8833 119.761 63.01C119.888 63.1367 120.035 63.23 120.201 63.29C120.368 63.35 120.548 63.38 120.741 63.38C120.981 63.38 121.188 63.3467 121.361 63.28C121.535 63.2067 121.685 63.13 121.811 63.05C121.938 62.9633 122.041 62.8867 122.121 62.82C122.201 62.7467 122.265 62.71 122.311 62.71C122.365 62.71 122.418 62.7433 122.471 62.81L122.731 63.23C122.478 63.51 122.155 63.7367 121.761 63.91C121.375 64.0767 120.971 64.16 120.551 64.16ZM130.257 59.19C129.31 59.2233 128.494 59.3 127.807 59.42C127.127 59.5333 126.564 59.69 126.117 59.89C125.677 60.09 125.35 60.33 125.137 60.61C124.924 60.8833 124.817 61.1967 124.817 61.55C124.817 61.8833 124.87 62.1733 124.977 62.42C125.09 62.66 125.237 62.86 125.417 63.02C125.604 63.1733 125.817 63.2867 126.057 63.36C126.297 63.4333 126.547 63.47 126.807 63.47C127.194 63.47 127.547 63.43 127.867 63.35C128.194 63.2633 128.494 63.1467 128.767 63C129.047 62.8467 129.307 62.6667 129.547 62.46C129.787 62.2533 130.024 62.03 130.257 61.79V59.19ZM124.407 55.46C124.927 54.94 125.474 54.5467 126.047 54.28C126.62 54.0133 127.27 53.88 127.997 53.88C128.53 53.88 128.997 53.9667 129.397 54.14C129.797 54.3067 130.127 54.55 130.387 54.87C130.654 55.1833 130.854 55.5667 130.987 56.02C131.12 56.4667 131.187 56.9667 131.187 57.52V64H130.807C130.607 64 130.484 63.9067 130.437 63.72L130.297 62.44C130.024 62.7067 129.75 62.9467 129.477 63.16C129.21 63.3733 128.93 63.5533 128.637 63.7C128.344 63.8467 128.027 63.96 127.687 64.04C127.347 64.12 126.974 64.16 126.567 64.16C126.227 64.16 125.897 64.11 125.577 64.01C125.257 63.91 124.97 63.7567 124.717 63.55C124.47 63.3433 124.27 63.08 124.117 62.76C123.97 62.4333 123.897 62.0433 123.897 61.59C123.897 61.17 124.017 60.78 124.257 60.42C124.497 60.06 124.874 59.7467 125.387 59.48C125.9 59.2133 126.557 59 127.357 58.84C128.164 58.68 129.13 58.5867 130.257 58.56V57.52C130.257 56.6 130.057 55.8933 129.657 55.4C129.264 54.9 128.677 54.65 127.897 54.65C127.417 54.65 127.007 54.7167 126.667 54.85C126.334 54.9833 126.05 55.13 125.817 55.29C125.584 55.45 125.394 55.5967 125.247 55.73C125.1 55.8633 124.977 55.93 124.877 55.93C124.804 55.93 124.744 55.9133 124.697 55.88C124.65 55.8467 124.61 55.8033 124.577 55.75L124.407 55.46ZM146.594 56.19C146.214 55.6167 145.791 55.2133 145.324 54.98C144.864 54.7467 144.337 54.63 143.744 54.63C143.157 54.63 142.644 54.7367 142.204 54.95C141.764 55.1633 141.394 55.4667 141.094 55.86C140.801 56.2467 140.577 56.7133 140.424 57.26C140.277 57.8 140.204 58.3967 140.204 59.05C140.204 60.53 140.474 61.62 141.014 62.32C141.561 63.0133 142.347 63.36 143.374 63.36C144.027 63.36 144.624 63.19 145.164 62.85C145.704 62.51 146.181 62.0333 146.594 61.42V56.19ZM147.544 49.45V64H147.024C146.851 64 146.751 63.9133 146.724 63.74L146.624 62.17C146.184 62.77 145.671 63.2467 145.084 63.6C144.497 63.9533 143.837 64.13 143.104 64.13C141.877 64.13 140.924 63.7067 140.244 62.86C139.564 62.0133 139.224 60.7433 139.224 59.05C139.224 58.3233 139.317 57.6467 139.504 57.02C139.697 56.3867 139.977 55.84 140.344 55.38C140.711 54.9133 141.161 54.5467 141.694 54.28C142.234 54.0133 142.854 53.88 143.554 53.88C144.227 53.88 144.811 54.0033 145.304 54.25C145.797 54.4967 146.227 54.8633 146.594 55.35V49.45H147.544ZM157.8 58.02C157.8 57.4867 157.723 57.01 157.57 56.59C157.423 56.1633 157.213 55.8033 156.94 55.51C156.666 55.2167 156.34 54.9933 155.96 54.84C155.586 54.68 155.173 54.6 154.72 54.6C154.206 54.6 153.746 54.68 153.34 54.84C152.933 55 152.58 55.23 152.28 55.53C151.986 55.83 151.75 56.19 151.57 56.61C151.39 57.03 151.27 57.5 151.21 58.02H157.8ZM151.16 58.63V58.82C151.16 59.5667 151.246 60.2233 151.42 60.79C151.593 61.3567 151.84 61.8333 152.16 62.22C152.48 62.6 152.866 62.8867 153.32 63.08C153.773 63.2733 154.28 63.37 154.84 63.37C155.34 63.37 155.773 63.3167 156.14 63.21C156.506 63.0967 156.813 62.9733 157.06 62.84C157.313 62.7 157.513 62.5767 157.66 62.47C157.806 62.3567 157.913 62.3 157.98 62.3C158.066 62.3 158.133 62.3333 158.18 62.4L158.44 62.72C158.28 62.92 158.066 63.1067 157.8 63.28C157.54 63.4533 157.246 63.6033 156.92 63.73C156.6 63.85 156.253 63.9467 155.88 64.02C155.513 64.0933 155.143 64.13 154.77 64.13C154.09 64.13 153.47 64.0133 152.91 63.78C152.35 63.54 151.87 63.1933 151.47 62.74C151.07 62.2867 150.76 61.7333 150.54 61.08C150.326 60.42 150.22 59.6667 150.22 58.82C150.22 58.1067 150.32 57.45 150.52 56.85C150.726 56.2433 151.02 55.7233 151.4 55.29C151.786 54.85 152.256 54.5067 152.81 54.26C153.37 54.0133 154.003 53.89 154.71 53.89C155.27 53.89 155.79 53.9867 156.27 54.18C156.75 54.3733 157.166 54.6567 157.52 55.03C157.873 55.3967 158.15 55.85 158.35 56.39C158.556 56.93 158.66 57.55 158.66 58.25C158.66 58.3967 158.64 58.4967 158.6 58.55C158.56 58.6033 158.493 58.63 158.4 58.63H151.16ZM173.369 55.38C173.336 55.4133 173.302 55.4433 173.269 55.47C173.242 55.49 173.202 55.5 173.149 55.5C173.082 55.5 172.992 55.4567 172.879 55.37C172.766 55.2767 172.612 55.1767 172.419 55.07C172.226 54.9633 171.982 54.8667 171.689 54.78C171.402 54.6867 171.052 54.64 170.639 54.64C170.066 54.64 169.556 54.7433 169.109 54.95C168.669 55.15 168.296 55.44 167.989 55.82C167.682 56.2 167.449 56.66 167.289 57.2C167.136 57.74 167.059 58.3467 167.059 59.02C167.059 59.72 167.139 60.34 167.299 60.88C167.466 61.42 167.699 61.8767 167.999 62.25C168.299 62.6167 168.662 62.8967 169.089 63.09C169.516 63.2833 169.989 63.38 170.509 63.38C170.989 63.38 171.389 63.3233 171.709 63.21C172.036 63.0967 172.302 62.9733 172.509 62.84C172.722 62.7067 172.889 62.5833 173.009 62.47C173.129 62.3567 173.229 62.3 173.309 62.3C173.389 62.3 173.456 62.3333 173.509 62.4L173.759 62.72C173.606 62.92 173.412 63.1067 173.179 63.28C172.946 63.4533 172.682 63.6033 172.389 63.73C172.096 63.8567 171.776 63.9533 171.429 64.02C171.089 64.0933 170.732 64.13 170.359 64.13C169.726 64.13 169.146 64.0167 168.619 63.79C168.099 63.5567 167.649 63.2233 167.269 62.79C166.896 62.35 166.602 61.8133 166.389 61.18C166.182 60.5467 166.079 59.8267 166.079 59.02C166.079 58.26 166.179 57.5667 166.379 56.94C166.579 56.3133 166.872 55.7733 167.259 55.32C167.646 54.8667 168.116 54.5167 168.669 54.27C169.229 54.0167 169.869 53.89 170.589 53.89C171.236 53.89 171.809 53.9933 172.309 54.2C172.809 54.4067 173.246 54.6867 173.619 55.04L173.369 55.38ZM179.857 53.89C180.571 53.89 181.207 54.0133 181.767 54.26C182.334 54.5 182.811 54.8433 183.197 55.29C183.584 55.7367 183.877 56.2767 184.077 56.91C184.284 57.5367 184.387 58.24 184.387 59.02C184.387 59.8 184.284 60.5033 184.077 61.13C183.877 61.7567 183.584 62.2933 183.197 62.74C182.811 63.1867 182.334 63.53 181.767 63.77C181.207 64.01 180.571 64.13 179.857 64.13C179.144 64.13 178.504 64.01 177.937 63.77C177.377 63.53 176.901 63.1867 176.507 62.74C176.121 62.2933 175.824 61.7567 175.617 61.13C175.417 60.5033 175.317 59.8 175.317 59.02C175.317 58.24 175.417 57.5367 175.617 56.91C175.824 56.2767 176.121 55.7367 176.507 55.29C176.901 54.8433 177.377 54.5 177.937 54.26C178.504 54.0133 179.144 53.89 179.857 53.89ZM179.857 63.38C180.451 63.38 180.967 63.28 181.407 63.08C181.854 62.8733 182.224 62.58 182.517 62.2C182.817 61.82 183.041 61.3633 183.187 60.83C183.334 60.29 183.407 59.6867 183.407 59.02C183.407 58.36 183.334 57.76 183.187 57.22C183.041 56.68 182.817 56.22 182.517 55.84C182.224 55.4533 181.854 55.1567 181.407 54.95C180.967 54.7433 180.451 54.64 179.857 54.64C179.264 54.64 178.744 54.7433 178.297 54.95C177.857 55.1567 177.487 55.4533 177.187 55.84C176.894 56.22 176.671 56.68 176.517 57.22C176.371 57.76 176.297 58.36 176.297 59.02C176.297 59.6867 176.371 60.29 176.517 60.83C176.671 61.3633 176.894 61.82 177.187 62.2C177.487 62.58 177.857 62.8733 178.297 63.08C178.744 63.28 179.264 63.38 179.857 63.38ZM187.07 64V54.05H187.6C187.766 54.05 187.863 54.1333 187.89 54.3L187.98 55.74C188.366 55.1867 188.81 54.74 189.31 54.4C189.81 54.06 190.373 53.89 191 53.89C191.726 53.89 192.306 54.1 192.74 54.52C193.18 54.94 193.476 55.5233 193.63 56.27C193.75 55.8633 193.916 55.51 194.13 55.21C194.35 54.91 194.6 54.6633 194.88 54.47C195.16 54.27 195.463 54.1233 195.79 54.03C196.123 53.9367 196.463 53.89 196.81 53.89C197.303 53.89 197.746 53.9733 198.14 54.14C198.533 54.3 198.866 54.54 199.14 54.86C199.413 55.18 199.623 55.5733 199.77 56.04C199.916 56.5067 199.99 57.04 199.99 57.64V64H199.04V57.64C199.04 56.6667 198.83 55.9267 198.41 55.42C197.99 54.9067 197.39 54.65 196.61 54.65C196.263 54.65 195.93 54.7133 195.61 54.84C195.296 54.9667 195.016 55.1567 194.77 55.41C194.53 55.6567 194.336 55.9667 194.19 56.34C194.05 56.7133 193.98 57.1467 193.98 57.64V64H193.02V57.64C193.02 56.6733 192.826 55.9333 192.44 55.42C192.06 54.9067 191.5 54.65 190.76 54.65C190.22 54.65 189.72 54.81 189.26 55.13C188.8 55.45 188.39 55.8933 188.03 56.46V64H187.07ZM204.123 61.83C204.317 62.1167 204.517 62.36 204.723 62.56C204.937 62.7533 205.16 62.9133 205.393 63.04C205.627 63.16 205.873 63.2467 206.133 63.3C206.4 63.3533 206.68 63.38 206.973 63.38C207.56 63.38 208.073 63.2733 208.513 63.06C208.953 62.8467 209.32 62.5467 209.613 62.16C209.913 61.7667 210.137 61.3 210.283 60.76C210.437 60.2133 210.513 59.6133 210.513 58.96C210.513 57.48 210.24 56.3933 209.693 55.7C209.147 55 208.363 54.65 207.343 54.65C206.683 54.65 206.087 54.82 205.553 55.16C205.02 55.5 204.543 55.9733 204.123 56.58V61.83ZM204.083 55.84C204.523 55.24 205.037 54.7633 205.623 54.41C206.217 54.0567 206.88 53.88 207.613 53.88C208.833 53.88 209.783 54.3033 210.463 55.15C211.15 55.9967 211.493 57.2667 211.493 58.96C211.493 59.6867 211.397 60.3667 211.203 61C211.017 61.6267 210.737 62.1733 210.363 62.64C209.997 63.1 209.543 63.4633 209.003 63.73C208.47 63.9967 207.853 64.13 207.153 64.13C206.48 64.13 205.897 64.0067 205.403 63.76C204.91 63.5133 204.483 63.15 204.123 62.67V67.52H203.163V54.05H203.693C203.86 54.05 203.957 54.1333 203.983 54.3L204.083 55.84ZM215.109 56.45C215.262 56.0433 215.435 55.6833 215.629 55.37C215.829 55.05 216.055 54.78 216.309 54.56C216.569 54.34 216.855 54.1733 217.169 54.06C217.489 53.94 217.842 53.88 218.229 53.88C218.435 53.88 218.639 53.9 218.839 53.94C219.039 53.9733 219.215 54.0367 219.369 54.13L219.289 54.79C219.255 54.8967 219.192 54.95 219.099 54.95C219.019 54.95 218.895 54.9267 218.729 54.88C218.569 54.8333 218.355 54.81 218.089 54.81C217.702 54.81 217.359 54.87 217.059 54.99C216.765 55.1033 216.499 55.2767 216.259 55.51C216.025 55.7433 215.819 56.0333 215.639 56.38C215.465 56.72 215.305 57.1133 215.159 57.56V64H214.199V54.05H214.709C214.822 54.05 214.902 54.0733 214.949 54.12C214.995 54.1667 215.025 54.2467 215.039 54.36L215.109 56.45ZM226.624 59.19C225.677 59.2233 224.861 59.3 224.174 59.42C223.494 59.5333 222.931 59.69 222.484 59.89C222.044 60.09 221.717 60.33 221.504 60.61C221.291 60.8833 221.184 61.1967 221.184 61.55C221.184 61.8833 221.237 62.1733 221.344 62.42C221.457 62.66 221.604 62.86 221.784 63.02C221.971 63.1733 222.184 63.2867 222.424 63.36C222.664 63.4333 222.914 63.47 223.174 63.47C223.561 63.47 223.914 63.43 224.234 63.35C224.561 63.2633 224.861 63.1467 225.134 63C225.414 62.8467 225.674 62.6667 225.914 62.46C226.154 62.2533 226.391 62.03 226.624 61.79V59.19ZM220.774 55.46C221.294 54.94 221.841 54.5467 222.414 54.28C222.987 54.0133 223.637 53.88 224.364 53.88C224.897 53.88 225.364 53.9667 225.764 54.14C226.164 54.3067 226.494 54.55 226.754 54.87C227.021 55.1833 227.221 55.5667 227.354 56.02C227.487 56.4667 227.554 56.9667 227.554 57.52V64H227.174C226.974 64 226.851 63.9067 226.804 63.72L226.664 62.44C226.391 62.7067 226.117 62.9467 225.844 63.16C225.577 63.3733 225.297 63.5533 225.004 63.7C224.711 63.8467 224.394 63.96 224.054 64.04C223.714 64.12 223.341 64.16 222.934 64.16C222.594 64.16 222.264 64.11 221.944 64.01C221.624 63.91 221.337 63.7567 221.084 63.55C220.837 63.3433 220.637 63.08 220.484 62.76C220.337 62.4333 220.264 62.0433 220.264 61.59C220.264 61.17 220.384 60.78 220.624 60.42C220.864 60.06 221.241 59.7467 221.754 59.48C222.267 59.2133 222.924 59 223.724 58.84C224.531 58.68 225.497 58.5867 226.624 58.56V57.52C226.624 56.6 226.424 55.8933 226.024 55.4C225.631 54.9 225.044 54.65 224.264 54.65C223.784 54.65 223.374 54.7167 223.034 54.85C222.701 54.9833 222.417 55.13 222.184 55.29C221.951 55.45 221.761 55.5967 221.614 55.73C221.467 55.8633 221.344 55.93 221.244 55.93C221.171 55.93 221.111 55.9133 221.064 55.88C221.017 55.8467 220.977 55.8033 220.944 55.75L220.774 55.46ZM236.212 55.28C236.158 55.3733 236.082 55.42 235.982 55.42C235.908 55.42 235.815 55.38 235.702 55.3C235.588 55.2133 235.435 55.12 235.242 55.02C235.055 54.9133 234.822 54.82 234.542 54.74C234.262 54.6533 233.922 54.61 233.522 54.61C233.162 54.61 232.832 54.6633 232.532 54.77C232.238 54.87 231.985 55.0067 231.772 55.18C231.565 55.3533 231.405 55.5567 231.292 55.79C231.178 56.0167 231.122 56.2567 231.122 56.51C231.122 56.8233 231.202 57.0833 231.362 57.29C231.522 57.4967 231.728 57.6733 231.982 57.82C232.242 57.9667 232.538 58.0933 232.872 58.2C233.205 58.3067 233.542 58.4133 233.882 58.52C234.228 58.6267 234.568 58.7467 234.902 58.88C235.235 59.0067 235.528 59.1667 235.782 59.36C236.042 59.5533 236.252 59.79 236.412 60.07C236.572 60.35 236.652 60.69 236.652 61.09C236.652 61.5233 236.575 61.9267 236.422 62.3C236.268 62.6733 236.042 62.9967 235.742 63.27C235.448 63.5433 235.085 63.76 234.652 63.92C234.218 64.08 233.722 64.16 233.162 64.16C232.462 64.16 231.858 64.05 231.352 63.83C230.845 63.6033 230.392 63.31 229.992 62.95L230.212 62.61C230.245 62.5567 230.282 62.5167 230.322 62.49C230.368 62.4633 230.428 62.45 230.502 62.45C230.588 62.45 230.692 62.5033 230.812 62.61C230.938 62.7167 231.105 62.8333 231.312 62.96C231.518 63.08 231.772 63.1933 232.072 63.3C232.378 63.4067 232.755 63.46 233.202 63.46C233.622 63.46 233.992 63.4033 234.312 63.29C234.632 63.17 234.898 63.01 235.112 62.81C235.325 62.61 235.485 62.3767 235.592 62.11C235.705 61.8367 235.762 61.55 235.762 61.25C235.762 60.9167 235.682 60.64 235.522 60.42C235.362 60.2 235.152 60.0133 234.892 59.86C234.632 59.7067 234.335 59.5767 234.002 59.47C233.675 59.3633 233.338 59.2567 232.992 59.15C232.645 59.0433 232.305 58.9267 231.972 58.8C231.645 58.6733 231.352 58.5133 231.092 58.32C230.832 58.1267 230.622 57.8933 230.462 57.62C230.302 57.34 230.222 56.9933 230.222 56.58C230.222 56.2267 230.298 55.8867 230.452 55.56C230.605 55.2333 230.822 54.9467 231.102 54.7C231.388 54.4533 231.735 54.2567 232.142 54.11C232.548 53.9633 233.005 53.89 233.512 53.89C234.118 53.89 234.655 53.9767 235.122 54.15C235.595 54.3233 236.025 54.59 236.412 54.95L236.212 55.28Z" fill="black"/>
</svg>
